<svg xmlns="http://www.w3.org/2000/svg" viewBox="0 0 1002 200" width="1002" height="200" role="img" aria-label="משכנתאות ציון"><g transform="translate(766.5 18) scale(0.3580)"><path fill="#0b1f3a" fill-rule="evenodd" d="M206.8,391.8C207.3,391.7 208.0,391.7 208.4,391.8C208.8,391.8 208.4,391.9 207.5,391.9C206.6,391.9 206.2,391.8 206.8,391.8ZM149.4,322.0C149.4,320.8 149.5,320.3 149.6,320.9C149.6,321.5 149.6,322.5 149.6,323.1C149.5,323.7 149.4,323.2 149.4,322.0ZM-0.0,213.1C-0.0,212.5 0.1,212.0 0.3,212.0C0.5,212.0 3.4,209.9 6.9,207.3C10.3,204.7 26.4,192.6 42.5,180.5C58.6,168.4 74.0,156.8 76.6,154.8C79.3,152.8 84.0,149.2 87.1,146.8C90.3,144.4 94.8,141.0 97.2,139.2C103.1,134.7 116.4,124.4 118.8,122.4C119.9,121.5 122.5,119.6 124.5,118.0C126.5,116.4 129.4,114.2 130.9,113.1C140.0,105.9 156.2,93.2 160.8,89.5C162.5,88.2 167.1,84.6 171.0,81.5C179.5,74.8 180.7,73.8 200.0,58.4C208.1,51.8 216.0,45.5 217.5,44.3C222.0,40.8 235.7,29.7 236.0,29.3C236.1,29.2 237.0,28.5 238.0,27.7C239.0,26.9 241.0,25.3 242.3,24.1C243.7,23.0 246.6,20.6 248.7,18.8C250.8,17.0 252.9,15.3 253.3,14.9C253.8,14.5 254.9,13.6 255.8,12.8C257.7,11.3 259.3,9.9 261.8,7.6C265.7,4.0 270.4,0.4 271.0,0.6C271.7,0.9 279.3,6.6 280.0,7.3C280.2,7.6 290.0,15.1 301.7,23.9C307.1,28.0 312.4,32.1 313.5,33.0C314.6,33.8 317.4,36.0 319.7,37.8C322.0,39.6 324.7,41.8 325.8,42.7C329.5,45.6 343.4,56.7 348.6,61.0C359.2,69.6 368.9,77.4 384.2,89.5C396.1,99.0 396.3,99.1 396.5,98.6C396.5,98.4 396.7,97.7 396.8,97.2C397.0,96.6 397.1,81.9 397.0,64.4C397.0,40.3 397.1,32.5 397.4,32.1C397.9,31.5 456.3,31.4 456.9,32.1C457.2,32.4 457.3,45.7 457.3,90.0L457.3,147.6L464.4,153.1C468.3,156.1 473.6,160.1 476.2,162.0C482.2,166.4 501.2,180.3 503.6,182.0C505.9,183.6 506.4,183.1 494.3,191.1C491.9,192.7 489.3,194.5 488.7,194.9C488.0,195.4 484.7,197.6 481.2,199.9C477.7,202.2 474.3,204.4 473.7,204.9C472.4,205.8 468.2,208.6 463.0,211.9C459.1,214.5 459.2,214.5 455.9,211.9C454.5,210.8 451.2,208.3 448.7,206.3C446.2,204.4 443.7,202.5 443.1,202.1C442.6,201.6 440.8,200.2 439.2,198.9C437.5,197.7 435.9,196.3 435.5,196.0C435.1,195.7 432.9,194.0 430.5,192.2C428.1,190.4 426.0,188.7 425.7,188.4C425.4,188.2 424.8,187.7 424.4,187.4C423.6,186.9 420.9,184.8 416.9,181.5C416.2,181.0 415.4,180.4 415.1,180.2C414.8,180.1 413.4,178.9 411.9,177.8C410.4,176.6 408.6,175.2 408.0,174.7C407.4,174.2 405.6,172.8 404.2,171.6C402.7,170.5 401.1,169.2 400.6,168.9C400.2,168.6 399.6,168.2 399.3,167.9C398.8,167.5 395.4,164.8 385.5,157.2C379.9,152.9 375.0,149.0 370.8,145.6C369.1,144.3 366.2,141.9 364.2,140.3C362.2,138.8 358.6,136.0 356.3,134.2C347.8,127.4 330.3,113.6 325.2,109.7C322.9,107.9 317.7,103.8 313.5,100.5C309.3,97.2 304.1,93.1 302.0,91.5C296.8,87.5 294.8,85.9 285.9,78.8C281.7,75.5 277.4,72.2 276.4,71.3C275.3,70.5 273.6,69.2 272.6,68.4C270.3,66.7 270.2,66.7 267.8,68.6C265.5,70.4 265.5,70.4 259.6,74.9C257.2,76.8 253.1,79.8 250.7,81.7C248.2,83.6 244.3,86.6 242.0,88.4C238.5,91.0 229.8,97.7 223.7,102.5C217.4,107.4 212.9,110.9 200.1,120.6C197.4,122.7 195.1,124.6 195.0,124.7C194.9,124.8 192.1,127.0 188.7,129.6C185.3,132.2 180.5,135.9 178.0,137.9C175.5,139.8 171.5,143.0 169.0,144.9C166.5,146.8 162.2,150.1 159.3,152.3C156.5,154.5 153.4,156.9 152.5,157.6C151.5,158.4 150.6,159.1 150.3,159.4C150.0,159.6 147.9,161.3 145.5,163.2C143.1,165.0 141.1,166.6 141.0,166.7C140.9,166.8 138.9,168.4 136.5,170.2C134.1,172.0 132.0,173.7 131.7,173.9C131.5,174.1 130.2,175.2 128.9,176.2C127.6,177.2 125.5,178.8 124.3,179.7C123.1,180.6 121.1,182.2 119.8,183.2C118.5,184.2 115.8,186.3 113.8,187.9C111.8,189.5 107.0,193.2 103.3,196.2C99.6,199.1 94.6,203.1 92.2,205.0C84.9,211.0 82.6,212.8 81.8,213.4C81.1,214.0 78.4,214.0 40.5,214.1L-0.0,214.2L-0.0,213.1ZM224.8,208.5C224.8,207.6 224.8,207.2 224.9,207.8C225.0,208.3 225.0,209.0 224.9,209.4C224.8,209.8 224.8,209.4 224.8,208.5ZM224.8,148.5C224.8,143.7 224.9,141.8 224.9,144.3C225.0,146.7 225.0,150.6 224.9,152.9C224.9,155.3 224.8,153.3 224.8,148.5ZM274.8,143.8C274.8,142.5 274.8,142.1 274.9,142.8C275.0,143.4 275.0,144.5 274.9,145.1C274.8,145.7 274.8,145.1 274.8,143.8ZM230.3,134.8C231.4,134.7 233.2,134.7 234.3,134.8C235.3,134.8 234.4,134.9 232.2,134.9C230.0,134.9 229.1,134.8 230.3,134.8ZM244.8,134.8C247.5,134.7 251.9,134.7 254.6,134.8C257.3,134.8 255.1,134.9 249.7,134.9C244.3,134.9 242.0,134.8 244.8,134.8ZM280.1,134.8C280.8,134.7 281.9,134.7 282.6,134.8C283.3,134.8 282.7,134.9 281.3,134.9C280.0,134.9 279.4,134.8 280.1,134.8ZM294.9,134.8C295.5,134.7 296.6,134.7 297.2,134.8C297.9,134.8 297.4,134.9 296.2,134.9C294.9,134.9 294.3,134.8 294.9,134.8ZM304.1,134.8C305.3,134.7 307.3,134.7 308.6,134.8C309.8,134.8 308.8,134.9 306.3,134.9C303.9,134.9 302.8,134.8 304.1,134.8Z"/><path fill="#c2410c" fill-rule="evenodd" d="M203.7,418.0C201.9,417.8 198.3,417.6 195.7,417.4C191.1,417.0 189.9,416.9 183.5,416.0C182.0,415.8 179.9,415.5 178.8,415.3C177.7,415.2 176.1,414.9 175.2,414.7C174.2,414.5 172.6,414.2 171.5,414.0C170.4,413.8 168.5,413.4 167.2,413.1C165.9,412.9 164.2,412.5 163.3,412.3C162.5,412.2 160.6,411.7 159.2,411.3C157.7,410.9 155.8,410.4 154.8,410.2C153.9,409.9 152.8,409.6 152.3,409.5C147.4,408.1 145.8,407.6 143.8,407.0C141.5,406.3 136.9,404.7 134.7,403.8C131.5,402.6 130.3,402.2 128.4,401.3C127.3,400.8 126.3,400.3 126.2,400.3C126.0,400.3 125.2,400.0 124.2,399.5C123.3,399.1 121.5,398.3 120.3,397.8C116.3,396.0 105.6,390.4 103.6,389.0C103.1,388.6 102.6,388.3 102.5,388.3C101.6,388.3 83.6,375.4 79.4,371.6C71.5,364.6 57.3,349.1 57.3,347.4C57.3,346.7 58.8,347.0 59.7,347.8C65.4,353.1 92.8,368.4 105.3,373.3C107.5,374.2 108.2,374.4 109.5,375.0C111.0,375.7 112.6,376.3 115.2,377.2C116.5,377.6 119.0,378.5 120.8,379.2C126.3,381.1 127.4,381.5 133.7,383.2C134.7,383.5 136.2,383.9 137.0,384.2C137.9,384.4 138.9,384.7 139.3,384.7C139.6,384.7 140.7,384.9 141.5,385.1C142.4,385.4 144.7,385.9 146.5,386.3C148.3,386.7 150.4,387.2 151.0,387.4C153.9,388.1 167.4,390.0 174.5,390.7C176.7,390.9 179.5,391.2 180.8,391.4C184.5,391.9 204.7,392.1 211.3,391.7C229.8,390.5 241.1,389.2 252.3,386.8C253.7,386.6 255.7,386.2 256.7,386.0C257.7,385.8 259.0,385.5 259.7,385.4C260.3,385.2 262.0,384.8 263.5,384.5C265.9,384.0 268.4,383.4 274.3,381.8C275.3,381.5 276.8,381.1 277.5,381.0C278.2,380.8 279.2,380.5 279.7,380.4C280.1,380.2 281.6,379.7 283.0,379.3C284.4,378.9 285.8,378.5 286.2,378.3C286.5,378.2 287.4,377.9 288.0,377.7C288.6,377.5 290.7,376.9 292.5,376.2C294.3,375.5 296.4,374.8 297.0,374.7C298.1,374.4 302.6,372.8 304.4,372.1C305.0,371.8 305.6,371.7 305.8,371.7C306.1,371.7 306.4,371.5 306.5,371.3C306.6,371.2 306.9,371.0 307.2,371.0C307.6,371.0 308.6,370.6 311.5,369.3C311.9,369.2 313.0,368.7 314.0,368.3C316.1,367.5 317.8,366.8 318.8,366.3C319.2,366.2 320.5,365.6 321.7,365.1C322.9,364.7 325.0,363.7 326.3,363.1C327.7,362.5 329.4,361.7 330.0,361.4C332.5,360.3 346.7,353.2 349.7,351.6C355.3,348.6 356.3,348.0 361.6,344.9C364.5,343.2 367.5,341.4 368.3,341.0C371.0,339.5 374.2,337.5 380.3,333.3C382.6,331.8 386.7,329.0 389.5,327.2C392.2,325.3 396.3,322.4 398.7,320.7C401.0,318.9 404.4,316.4 406.2,315.2C412.0,311.0 424.4,300.9 438.8,288.8C441.5,286.6 446.2,282.4 450.3,278.5C451.5,277.4 454.2,274.9 456.3,273.0C477.7,253.4 499.4,231.4 526.3,201.9L535.1,192.2L533.8,191.1C533.1,190.4 530.0,187.6 527.0,184.9C524.0,182.1 521.2,179.6 520.8,179.3C519.6,178.4 519.5,176.7 520.7,176.7C520.9,176.7 527.1,174.1 534.4,171.0C541.8,167.8 549.4,164.6 551.3,163.8C556.9,161.6 560.3,160.2 563.5,158.8C565.1,158.0 569.1,156.3 572.3,155.0C575.5,153.7 581.6,151.1 585.9,149.3C594.2,145.8 601.2,143.0 601.7,143.0C602.3,143.0 601.7,147.6 600.1,154.0C599.8,155.2 599.5,156.8 599.3,157.7C599.2,158.5 598.9,160.1 598.7,161.2C598.5,162.3 598.1,164.2 597.8,165.5C597.2,168.8 596.4,172.5 594.8,179.9C594.6,181.2 594.3,182.6 594.3,183.0C594.3,183.4 594.1,184.5 593.9,185.6C593.6,186.6 593.1,188.8 592.8,190.3C592.5,191.9 592.1,193.8 591.9,194.7C591.7,195.5 591.5,196.8 591.3,197.7C591.1,199.4 590.5,202.1 589.9,204.3C589.7,205.2 589.5,206.6 589.3,207.5C589.0,209.9 588.3,212.9 587.8,214.9C587.5,215.8 587.3,217.0 587.3,217.5C587.3,218.0 587.1,218.9 586.8,219.6C586.6,220.2 586.3,221.2 586.3,221.9C586.3,222.5 586.2,223.4 586.0,223.9C585.8,224.4 585.5,225.7 585.3,226.7C585.0,229.1 584.3,232.3 584.0,233.2C583.6,234.3 583.0,234.2 581.2,232.5C580.2,231.6 577.9,229.5 575.8,227.8C573.8,226.0 571.2,223.7 570.0,222.5C568.8,221.4 567.3,220.1 566.7,219.6L565.6,218.7L562.2,222.6C560.3,224.7 557.0,228.5 554.9,231.0C552.7,233.5 550.5,236.0 550.0,236.5C545.0,242.1 538.2,249.8 536.7,251.4C535.7,252.6 533.9,254.5 532.7,255.8C531.5,257.1 526.7,262.2 522.0,267.2C517.3,272.1 512.5,277.0 511.5,278.0C510.4,279.0 506.9,282.3 503.8,285.3C500.7,288.4 495.1,293.6 491.3,297.0C485.4,302.4 482.3,305.1 472.0,314.0C465.9,319.2 450.8,330.9 439.0,339.4C432.4,344.2 418.8,353.0 409.3,358.7C405.9,360.7 402.9,362.5 402.7,362.7C402.4,362.8 401.1,363.5 399.8,364.2C398.6,364.9 397.3,365.5 397.2,365.7C396.9,365.9 394.7,367.1 389.0,370.3C387.5,371.1 378.8,375.6 373.0,378.5C369.7,380.1 364.6,382.6 362.2,383.7C361.2,384.1 359.3,385.0 357.8,385.7C354.5,387.2 353.6,387.6 349.8,389.2C348.2,389.9 346.3,390.6 345.7,390.9C344.2,391.6 342.9,392.1 341.0,392.8C340.2,393.2 339.0,393.6 338.4,393.9C337.9,394.1 337.3,394.3 337.1,394.3C336.9,394.3 333.6,395.6 330.5,396.8C326.3,398.5 312.1,403.4 305.7,405.3C303.7,405.9 301.7,406.5 301.1,406.7C300.6,406.8 299.5,407.1 298.6,407.3C297.8,407.5 296.3,407.9 295.3,408.1C287.3,410.2 280.6,411.9 275.8,412.8C274.4,413.1 272.5,413.5 271.7,413.7C270.8,413.9 269.2,414.2 268.0,414.3C266.8,414.5 264.5,414.9 262.8,415.1C261.2,415.4 258.6,415.8 257.0,416.0C255.4,416.2 253.1,416.5 251.8,416.7C250.5,416.9 247.4,417.2 244.8,417.3C242.3,417.5 238.2,417.8 235.8,418.0C230.8,418.4 208.3,418.4 203.7,418.0ZM183.0,376.3C175.2,375.7 170.1,375.2 164.0,374.2C162.3,373.9 159.3,373.4 157.5,373.1C155.7,372.8 153.3,372.5 152.2,372.3C151.1,372.1 150.0,371.8 149.9,371.7C149.4,371.2 149.6,315.6 150.0,314.5C150.9,312.1 153.0,310.7 158.3,309.1C160.9,308.2 162.4,307.7 163.8,307.2C164.4,307.0 165.7,306.5 166.8,306.2C167.9,305.8 169.4,305.4 170.0,305.2C170.6,304.9 172.1,304.5 173.2,304.2C174.3,303.8 175.7,303.4 176.3,303.1C177.0,302.9 178.3,302.4 179.3,302.1C181.1,301.6 182.1,301.3 184.7,300.4C185.3,300.1 186.3,299.8 186.8,299.7C187.4,299.5 191.7,298.1 196.3,296.5C201.0,294.9 205.7,293.4 206.7,293.1C207.7,292.8 209.0,292.4 209.7,292.2C214.3,290.5 215.8,290.3 216.1,291.2C216.6,292.4 216.4,375.6 215.9,375.9C214.5,377.1 195.9,377.3 183.0,376.3ZM239.3,372.7C239.1,372.3 239.0,356.7 239.0,324.6C239.0,277.7 239.0,277.2 239.7,275.7C241.2,272.3 242.5,271.4 248.3,269.7C250.3,269.1 252.4,268.4 253.0,268.2C254.6,267.6 256.7,266.9 257.8,266.6C258.4,266.5 260.3,265.8 262.2,265.2C264.0,264.5 265.9,263.8 266.5,263.7C267.1,263.5 268.7,263.0 270.2,262.5C271.6,262.1 273.7,261.4 274.7,261.1C275.7,260.8 277.0,260.4 277.7,260.2C278.3,259.9 279.4,259.6 280.0,259.4C280.6,259.1 281.6,258.8 282.2,258.7C282.7,258.5 283.5,258.3 284.0,258.1C284.5,257.9 286.4,257.3 288.3,256.7C290.3,256.1 293.6,255.0 295.7,254.3C302.5,251.9 305.0,251.4 305.5,252.2C306.3,253.3 306.2,354.7 305.4,355.4C304.8,355.9 299.2,358.0 291.0,360.8C288.0,361.9 284.7,363.0 283.7,363.3C282.7,363.7 281.2,364.1 280.5,364.3C279.8,364.5 278.4,364.9 277.5,365.1C272.4,366.6 270.1,367.3 269.3,367.4C268.9,367.5 266.5,368.1 264.0,368.8C261.5,369.4 258.6,370.1 257.6,370.3C256.7,370.5 254.9,370.9 253.7,371.2C249.2,372.2 242.7,373.3 240.6,373.3C240.0,373.3 239.6,373.1 239.3,372.7ZM328.9,344.8C328.4,344.3 328.7,242.9 329.1,241.6C329.7,240.0 331.2,237.8 331.9,237.5C333.2,237.0 339.1,234.9 344.0,233.3C346.8,232.4 349.7,231.4 350.3,231.2C351.9,230.6 352.7,230.3 362.0,227.3C366.5,225.8 370.7,224.4 371.3,224.2C372.0,223.9 374.8,223.0 377.5,222.2C380.2,221.3 382.9,220.5 383.5,220.3C384.1,220.1 385.5,219.7 386.7,219.3C387.9,218.9 389.4,218.4 390.0,218.2C394.3,216.6 394.8,216.6 395.2,217.2C395.6,217.7 395.7,225.9 395.7,261.2L395.7,304.6L394.2,305.8C393.5,306.4 391.9,307.6 390.7,308.4C389.5,309.2 387.3,310.7 385.8,311.8C384.4,312.8 382.0,314.4 380.7,315.4C373.3,320.5 353.6,333.0 352.8,333.0C352.7,333.0 351.4,333.7 349.9,334.6C348.4,335.5 346.6,336.5 345.8,336.9C345.1,337.2 343.9,337.8 343.3,338.2C341.2,339.5 332.2,344.0 331.8,344.0C331.6,344.0 331.2,344.2 331.0,344.5C330.6,345.0 329.3,345.2 328.9,344.8ZM225.3,220.7C224.6,220.2 224.6,184.4 225.3,183.5C225.7,183.0 261.1,182.7 262.5,183.2C263.3,183.5 263.3,220.5 262.5,220.8C261.6,221.1 225.9,221.0 225.3,220.7ZM274.9,220.5C274.3,219.1 274.7,184.1 275.2,183.5C275.9,182.8 311.9,182.7 312.6,183.4C313.2,184.0 313.2,220.0 312.6,220.6C311.9,221.3 275.1,221.2 274.9,220.5ZM225.2,172.3C224.6,171.4 224.8,135.8 225.4,135.2C225.7,134.8 262.4,134.9 262.8,135.3C263.2,135.7 263.1,172.1 262.6,172.5C262.4,172.7 256.0,172.9 244.0,172.9L225.7,173.0L225.2,172.3ZM275.4,172.5C274.9,172.1 274.8,171.1 274.8,153.9C274.8,143.9 274.9,135.6 275.0,135.3C275.3,134.8 312.2,134.7 312.7,135.2C313.3,135.9 313.1,171.7 312.5,172.4C311.7,173.2 276.5,173.3 275.4,172.5Z"/></g><g fill="#0b1f3a" transform="translate(682.5 108)"><path transform="translate(-69.1 0.0) scale(0.0960 -0.0960)" d="M396.0 387.0 64.0 386.0Q53.0 386.0 45.0 394.0Q37.0 402.0 37.0 413.0V544.0Q37.0 555.0 45.0 563.0Q53.0 571.0 64.0 571.0H432.0Q502.0 571.0 558.0 547.5Q614.0 524.0 646.5 470.5Q679.0 417.0 679.0 327.0V27.0Q679.0 16.0 671.0 8.0Q663.0 0.0 652.0 0.0H370.0Q359.0 0.0 351.0 8.0Q343.0 16.0 343.0 27.0V148.0Q343.0 159.0 351.0 167.0Q359.0 175.0 370.0 175.0H456.0V317.0Q456.0 342.0 448.5 357.5Q441.0 373.0 427.5 380.0Q414.0 387.0 396.0 387.0ZM57.0 0.0Q46.0 0.0 36.5 8.0Q27.0 16.0 30.0 27.0L153.0 434.0Q156.0 445.0 162.5 453.0Q169.0 461.0 180.0 461.0H321.0Q332.0 461.0 341.5 450.5Q351.0 440.0 348.0 429.0L247.0 27.0Q247.0 16.0 239.0 8.0Q231.0 0.0 220.0 0.0Z"/><path transform="translate(-146.4 0.0) scale(0.0960 -0.0960)" d="M398.0 164.0Q442.0 164.0 479.0 182.0Q516.0 200.0 538.5 230.5Q561.0 261.0 561.0 298.0V545.0Q561.0 556.0 569.0 563.5Q577.0 571.0 588.0 571.0H737.0Q748.0 571.0 756.0 563.0Q764.0 555.0 764.0 544.0V293.0Q764.0 223.0 738.5 167.0Q713.0 111.0 668.0 71.5Q623.0 32.0 565.5 11.0Q508.0 -10.0 443.0 -10.0H333.0Q238.0 -10.0 174.5 23.0Q111.0 56.0 79.0 108.0Q47.0 160.0 47.0 217.0V544.0Q47.0 555.0 55.0 563.0Q63.0 571.0 74.0 571.0H223.0Q234.0 571.0 242.0 563.5Q250.0 556.0 250.0 545.0V335.0Q250.0 253.0 287.5 208.5Q325.0 164.0 380.0 164.0ZM236.0 190.0 237.0 333.0Q261.0 333.0 276.0 347.5Q291.0 362.0 298.0 392.5Q305.0 423.0 305.0 471.0V542.0Q305.0 555.0 313.0 563.0Q321.0 571.0 332.0 571.0H480.0Q491.0 571.0 499.0 562.0Q507.0 553.0 507.0 542.0V471.0Q507.0 375.0 473.5 313.0Q440.0 251.0 379.0 220.5Q318.0 190.0 236.0 190.0Z"/><path transform="translate(-198.0 0.0) scale(0.0960 -0.0960)" d="M64.0 0.0Q53.0 0.0 45.0 8.0Q37.0 16.0 37.0 27.0V158.0Q37.0 169.0 45.0 177.0Q53.0 185.0 64.0 185.0H211.0Q248.0 185.0 270.5 204.0Q293.0 223.0 295.0 260.0Q296.0 275.0 296.0 285.5Q296.0 296.0 295.0 311.0Q293.0 349.0 270.5 367.5Q248.0 386.0 211.0 386.0H64.0Q53.0 386.0 45.0 394.0Q37.0 402.0 37.0 413.0V544.0Q37.0 555.0 45.0 563.0Q53.0 571.0 64.0 571.0H216.0Q319.0 571.0 381.5 537.5Q444.0 504.0 474.0 444.5Q504.0 385.0 508.0 308.0Q509.0 293.0 509.0 285.5Q509.0 278.0 508.0 263.0Q504.0 186.0 474.0 126.5Q444.0 67.0 381.5 33.5Q319.0 0.0 216.0 0.0Z"/><path transform="translate(-243.0 0.0) scale(0.0960 -0.0960)" d="M59.0 0.0Q48.0 0.0 40.0 8.0Q32.0 16.0 32.0 27.0V148.0Q32.0 159.0 40.0 167.0Q48.0 175.0 59.0 175.0H414.0V27.0Q414.0 16.0 406.0 8.0Q398.0 0.0 387.0 0.0ZM238.0 0.0Q227.0 0.0 219.0 8.0Q211.0 16.0 211.0 27.0L201.0 333.0Q200.0 361.0 192.0 377.0Q184.0 393.0 168.0 400.5Q152.0 408.0 127.0 408.0H69.0Q58.0 408.0 50.0 416.0Q42.0 424.0 42.0 435.0V554.0Q42.0 565.0 50.0 573.0Q58.0 581.0 69.0 581.0H132.0Q205.0 581.0 260.5 568.0Q316.0 555.0 354.0 525.5Q392.0 496.0 412.0 447.0Q432.0 398.0 434.0 327.0L444.0 27.0Q444.0 16.0 436.0 8.0Q428.0 0.0 417.0 0.0Z"/><path transform="translate(-315.1 0.0) scale(0.0960 -0.0960)" d="M96.0 396.0Q85.0 396.0 77.0 404.0Q69.0 412.0 69.0 423.0V544.0Q69.0 555.0 77.0 563.0Q85.0 571.0 96.0 571.0H419.0Q512.0 571.0 577.0 547.0Q642.0 523.0 676.0 469.5Q710.0 416.0 710.0 326.0V27.0Q710.0 16.0 702.0 8.0Q694.0 0.0 683.0 0.0H514.0Q503.0 0.0 495.0 7.5Q487.0 15.0 487.0 26.0V321.0Q487.0 359.0 468.5 377.5Q450.0 396.0 413.0 396.0ZM250.0 482.0H311.0Q349.0 482.0 362.0 468.5Q375.0 455.0 368.0 441.0Q357.0 418.0 350.5 394.0Q344.0 370.0 341.5 343.5Q339.0 317.0 339.0 284.0L351.0 27.0Q351.0 16.0 343.0 8.0Q335.0 0.0 324.0 0.0H62.0Q51.0 0.0 43.0 8.0Q35.0 16.0 35.0 27.0V138.0Q35.0 149.0 43.0 157.0Q51.0 165.0 62.0 165.0H146.0V284.0Q146.0 309.0 148.5 335.0Q151.0 361.0 157.0 388.0Q163.0 415.0 174.0 441.0Q181.0 457.0 197.0 469.5Q213.0 482.0 250.0 482.0Z"/><path transform="translate(-379.8 0.0) scale(0.0960 -0.0960)" d="M437.0 0.0Q418.0 0.0 408.5 9.5Q399.0 19.0 396.0 23.0L43.0 538.0Q40.0 542.0 40.0 549.0Q40.0 558.0 46.5 564.5Q53.0 571.0 62.0 571.0H229.0Q249.0 571.0 258.0 561.0Q267.0 551.0 271.0 546.0L631.0 33.0Q634.0 29.0 634.0 26.5Q634.0 24.0 634.0 22.0Q634.0 13.0 627.5 6.5Q621.0 0.0 612.0 0.0ZM69.0 0.0Q58.0 0.0 50.0 9.0Q42.0 18.0 42.0 29.0V136.0Q42.0 200.0 53.0 243.0Q64.0 286.0 89.5 319.5Q115.0 353.0 160.0 387.0L264.0 237.0Q249.0 223.0 243.0 204.5Q237.0 186.0 236.0 169.0Q235.0 152.0 235.0 140.0V29.0Q235.0 16.0 227.0 8.0Q219.0 0.0 208.0 0.0ZM492.0 203.0 382.0 350.0Q400.0 360.0 407.5 375.0Q415.0 390.0 417.0 405.5Q419.0 421.0 419.0 431.0V542.0Q419.0 555.0 427.0 563.0Q435.0 571.0 446.0 571.0H595.0Q606.0 571.0 614.0 562.0Q622.0 553.0 622.0 542.0V427.0Q622.0 388.0 610.5 348.5Q599.0 309.0 571.0 272.0Q543.0 235.0 492.0 203.0Z"/><path transform="translate(-411.2 0.0) scale(0.0960 -0.0960)" d="M74.0 0.0Q63.0 0.0 55.0 8.0Q47.0 16.0 47.0 27.0V544.0Q47.0 555.0 55.0 563.0Q63.0 571.0 74.0 571.0H253.0Q264.0 571.0 272.0 563.0Q280.0 555.0 280.0 544.0V27.0Q280.0 16.0 272.0 8.0Q264.0 0.0 253.0 0.0Z"/><path transform="translate(-483.3 0.0) scale(0.0960 -0.0960)" d="M96.0 396.0Q85.0 396.0 77.0 404.0Q69.0 412.0 69.0 423.0V544.0Q69.0 555.0 77.0 563.0Q85.0 571.0 96.0 571.0H419.0Q512.0 571.0 577.0 547.0Q642.0 523.0 676.0 469.5Q710.0 416.0 710.0 326.0V27.0Q710.0 16.0 702.0 8.0Q694.0 0.0 683.0 0.0H514.0Q503.0 0.0 495.0 7.5Q487.0 15.0 487.0 26.0V321.0Q487.0 359.0 468.5 377.5Q450.0 396.0 413.0 396.0ZM250.0 482.0H311.0Q349.0 482.0 362.0 468.5Q375.0 455.0 368.0 441.0Q357.0 418.0 350.5 394.0Q344.0 370.0 341.5 343.5Q339.0 317.0 339.0 284.0L351.0 27.0Q351.0 16.0 343.0 8.0Q335.0 0.0 324.0 0.0H62.0Q51.0 0.0 43.0 8.0Q35.0 16.0 35.0 27.0V138.0Q35.0 149.0 43.0 157.0Q51.0 165.0 62.0 165.0H146.0V284.0Q146.0 309.0 148.5 335.0Q151.0 361.0 157.0 388.0Q163.0 415.0 174.0 441.0Q181.0 457.0 197.0 469.5Q213.0 482.0 250.0 482.0Z"/></g><g fill="#c2410c" transform="translate(682.5 108)"><path transform="translate(-569.6 0.0) scale(0.0960 -0.0960)" d="M88.0 0.0Q77.0 0.0 69.0 8.0Q61.0 16.0 61.0 27.0V153.0Q61.0 164.0 69.0 172.0Q77.0 180.0 88.0 180.0H297.0L22.0 537.0Q21.0 539.0 19.0 543.0Q17.0 547.0 17.0 551.0Q17.0 560.0 23.5 565.5Q30.0 571.0 39.0 571.0H216.0Q233.0 571.0 241.0 563.5Q249.0 556.0 252.0 552.0L536.0 176.0Q541.0 170.0 546.0 162.5Q551.0 155.0 551.0 141.0V27.0Q551.0 16.0 543.0 8.0Q535.0 0.0 524.0 0.0ZM463.0 243.0 352.0 390.0Q373.0 414.0 379.5 444.0Q386.0 474.0 386.0 506.0V542.0Q386.0 555.0 394.0 563.0Q402.0 571.0 413.0 571.0H562.0Q573.0 571.0 581.0 562.0Q589.0 553.0 589.0 542.0V463.0Q589.0 402.0 557.0 343.5Q525.0 285.0 463.0 243.0Z"/><path transform="translate(-600.7 0.0) scale(0.0960 -0.0960)" d="M72.0 240.0Q61.0 240.0 53.0 248.0Q45.0 256.0 45.0 267.0V544.0Q45.0 555.0 53.0 563.0Q61.0 571.0 72.0 571.0H251.0Q262.0 571.0 270.0 563.0Q278.0 555.0 278.0 544.0V267.0Q278.0 256.0 270.0 248.0Q262.0 240.0 251.0 240.0Z"/><path transform="translate(-632.0 0.0) scale(0.0960 -0.0960)" d="M74.0 0.0Q63.0 0.0 55.0 8.0Q47.0 16.0 47.0 27.0V544.0Q47.0 555.0 55.0 563.0Q63.0 571.0 74.0 571.0H253.0Q264.0 571.0 272.0 563.0Q280.0 555.0 280.0 544.0V27.0Q280.0 16.0 272.0 8.0Q264.0 0.0 253.0 0.0Z"/><path transform="translate(-662.5 0.0) scale(0.0960 -0.0960)" d="M74.0 -124.0Q63.0 -124.0 55.0 -116.0Q47.0 -108.0 47.0 -97.0V544.0Q47.0 555.0 55.0 563.0Q63.0 571.0 74.0 571.0H243.0Q254.0 571.0 262.0 563.0Q270.0 555.0 270.0 544.0V-97.0Q270.0 -108.0 262.0 -116.0Q254.0 -124.0 243.0 -124.0Z"/></g><g fill="#0b1f3a" transform="translate(562.7 158)"><path transform="translate(-24.8 0.0) scale(0.0400 -0.0400)" d="M479.8 0.0Q469.6 0.0 463.2 6.3Q456.8 12.6 456.8 22.8V321.8Q456.8 402.1 416.8 446.6Q376.8 491.1 287.8 491.1H100.0Q89.8 491.1 83.4 497.4Q77.1 503.8 77.1 514.0V548.1Q77.1 558.2 83.4 564.6Q89.8 571.0 100.0 571.0H292.8Q422.8 571.0 485.5 508.1Q548.2 445.2 548.2 325.1V22.9Q548.2 12.8 541.8 6.4Q535.4 0.0 525.2 0.0ZM100.0 0.0Q89.8 0.0 83.4 6.4Q77.1 12.8 77.1 22.9V357.2Q77.1 367.4 83.4 373.8Q89.8 380.2 100.0 380.2H145.5Q155.7 380.2 162.1 373.8Q168.4 367.4 168.4 357.2V22.9Q168.4 12.8 162.1 6.4Q155.7 0.0 145.5 0.0Z"/><path transform="translate(-47.0 0.0) scale(0.0400 -0.0400)" d="M330.0 0.0Q308.0 0.0 308.0 22.0V378.6Q308.0 437.7 321.9 471.0Q335.8 504.2 356.6 504.2H455.0Q430.0 504.2 414.5 466.3Q399.0 428.4 399.0 371.9V22.0Q399.0 12.0 392.1 6.0Q385.1 0.0 375.1 0.0ZM59.8 491.1Q49.6 491.1 43.2 497.4Q36.8 503.8 36.8 514.0V548.1Q36.8 558.2 43.2 564.6Q49.6 571.0 59.8 571.0H488.7Q498.9 571.0 505.2 564.6Q511.6 558.2 511.6 548.1V514.0Q511.6 504.0 505.4 497.5Q499.2 491.1 488.7 491.1Z"/><path transform="translate(-68.6 0.0) scale(0.0400 -0.0400)" d="M399.8 0.0Q389.6 0.0 383.2 6.3Q376.8 12.6 376.8 22.8V321.8Q376.8 402.1 336.8 446.6Q296.8 491.1 207.8 491.1H77.3Q67.1 491.1 60.8 497.4Q54.4 503.8 54.4 514.0V548.1Q54.4 558.2 60.8 564.6Q67.1 571.0 77.3 571.0H212.9Q299.4 571.0 355.9 543.8Q412.4 516.6 440.3 462.4Q468.2 408.2 468.2 327.0V22.9Q468.2 12.8 461.8 6.4Q455.4 0.0 445.2 0.0Z"/><path transform="translate(-91.2 0.0) scale(0.0400 -0.0400)" d="M402.7 321.8Q402.7 402.1 362.2 446.6Q321.8 491.1 232.8 491.1H86.1Q75.9 491.1 69.6 497.4Q63.2 503.8 63.2 514.0V548.1Q63.2 558.2 69.6 564.6Q75.9 571.0 86.1 571.0H238.0Q324.5 571.0 381.4 544.6Q438.2 518.2 466.2 464.4Q494.1 410.6 494.1 327.0V-101.1Q494.1 -111.2 487.7 -117.6Q481.3 -124.0 471.1 -124.0H425.6Q415.4 -124.0 409.1 -117.7Q402.7 -111.4 402.7 -101.2Z"/><path transform="translate(-125.8 0.0) scale(0.0400 -0.0400)" d="M479.8 0.0Q469.6 0.0 463.2 6.3Q456.8 12.6 456.8 22.8V321.8Q456.8 402.1 416.8 446.6Q376.8 491.1 287.8 491.1H100.0Q89.8 491.1 83.4 497.4Q77.1 503.8 77.1 514.0V548.1Q77.1 558.2 83.4 564.6Q89.8 571.0 100.0 571.0H292.8Q422.8 571.0 485.5 508.1Q548.2 445.2 548.2 325.1V22.9Q548.2 12.8 541.8 6.4Q535.4 0.0 525.2 0.0ZM100.0 0.0Q89.8 0.0 83.4 6.4Q77.1 12.8 77.1 22.9V357.2Q77.1 367.4 83.4 373.8Q89.8 380.2 100.0 380.2H145.5Q155.7 380.2 162.1 373.8Q168.4 367.4 168.4 357.2V22.9Q168.4 12.8 162.1 6.4Q155.7 0.0 145.5 0.0Z"/><path transform="translate(-147.6 0.0) scale(0.0400 -0.0400)" d="M75.9 0.0Q65.7 0.0 59.3 6.4Q52.9 12.8 52.9 22.9V57.0Q52.9 67.2 59.3 73.6Q65.7 79.9 75.9 79.9H362.6V321.6Q362.6 401.9 322.6 446.4Q282.6 490.9 193.6 490.9H85.9Q75.7 490.9 69.3 497.2Q62.9 503.6 62.9 513.8V548.1Q62.9 558.2 69.3 564.6Q75.7 571.0 85.9 571.0H198.6Q285.1 571.0 342.0 543.1Q398.9 515.2 427.4 460.7Q455.9 406.1 455.9 325.3V79.9H492.9Q503.1 79.9 509.5 73.6Q515.9 67.2 515.9 57.0V22.9Q515.9 12.8 509.5 6.4Q503.1 0.0 492.9 0.0Z"/><path transform="translate(-172.8 0.0) scale(0.0400 -0.0400)" d="M324.2 -10.0Q190.0 -10.0 130.9 54.8Q71.9 119.5 71.9 235.3V548.1Q71.9 558.2 78.2 564.6Q84.6 571.0 94.8 571.0H136.4Q146.6 571.0 152.9 564.6Q159.3 558.2 159.3 548.1V240.3Q159.3 159.5 200.0 115.7Q240.7 71.8 324.0 71.8Q407.1 71.8 445.8 112.0Q484.4 152.1 486.1 232.2Q486.9 242.4 486.5 262.7Q486.1 282.9 486.1 303.7Q486.1 324.5 486.1 334.5Q484.4 417.8 450.8 455.9Q417.2 494.0 363.1 494.0Q346.4 494.0 324.4 487.8Q302.3 481.7 286.6 471.6Q277.6 466.8 268.0 471.2Q258.4 475.7 258.4 486.6V518.4Q258.4 527.8 260.3 535.6Q262.1 543.4 271.1 548.8Q290.8 561.1 314.2 568.4Q337.5 575.6 375.1 575.6Q440.0 575.6 483.9 551.1Q527.8 526.5 551.1 475.5Q574.5 424.6 576.1 345.1Q576.9 335.1 576.9 310.8Q576.9 286.6 577.0 261.9Q577.1 237.2 576.1 227.2Q573.8 150.6 548.2 97.3Q522.8 44.1 468.5 17.0Q414.2 -10.0 324.2 -10.0Z"/><path transform="translate(-182.7 0.0) scale(0.0400 -0.0400)" d="M100.0 0.0Q89.8 0.0 83.4 6.4Q77.1 12.8 77.1 22.9V548.1Q77.1 558.2 83.4 564.6Q89.8 571.0 100.0 571.0H147.4Q157.6 571.0 163.9 564.6Q170.3 558.2 170.3 548.1V22.9Q170.3 12.8 163.9 6.4Q157.6 0.0 147.4 0.0Z"/><path transform="translate(-207.5 0.0) scale(0.0400 -0.0400)" d="M100.0 0.0Q89.8 0.0 83.4 6.4Q77.1 12.8 77.1 22.9V548.1Q77.1 558.2 83.4 564.6Q89.8 571.0 100.0 571.0H294.5Q381.4 571.0 437.8 543.6Q494.3 516.2 522.1 461.6Q549.9 406.9 549.9 325.1V22.9Q549.9 12.8 543.6 6.4Q537.2 0.0 527.0 0.0H481.5Q471.3 0.0 464.9 6.3Q458.6 12.6 458.6 22.8V321.8Q458.6 402.1 418.5 446.6Q378.5 491.1 289.5 491.1H168.4V22.9Q168.4 12.8 162.1 6.4Q155.7 0.0 145.5 0.0Z"/><path transform="translate(-232.3 0.0) scale(0.0400 -0.0400)" d="M479.8 0.0Q469.6 0.0 463.2 6.3Q456.8 12.6 456.8 22.8V321.8Q456.8 402.1 416.8 446.6Q376.8 491.1 287.8 491.1H100.0Q89.8 491.1 83.4 497.4Q77.1 503.8 77.1 514.0V548.1Q77.1 558.2 83.4 564.6Q89.8 571.0 100.0 571.0H292.8Q422.8 571.0 485.5 508.1Q548.2 445.2 548.2 325.1V22.9Q548.2 12.8 541.8 6.4Q535.4 0.0 525.2 0.0ZM100.0 0.0Q89.8 0.0 83.4 6.4Q77.1 12.8 77.1 22.9V357.2Q77.1 367.4 83.4 373.8Q89.8 380.2 100.0 380.2H145.5Q155.7 380.2 162.1 373.8Q168.4 367.4 168.4 357.2V22.9Q168.4 12.8 162.1 6.4Q155.7 0.0 145.5 0.0Z"/><path transform="translate(-263.0 0.0) scale(0.0400 -0.0400)" d="M199.8 -9.3Q190.6 -12.1 182.8 -6.7Q175.0 -1.3 175.0 8.9V55.2Q175.0 63.8 180.7 71.1Q186.3 78.3 197.1 82.3L235.5 97.4Q275.4 113.5 307.7 138.0Q339.9 162.4 358.5 204.3Q377.0 246.2 377.0 314.2Q377.0 379.0 361.4 417.2Q345.9 455.5 309.3 472.3Q272.8 489.2 210.4 489.2H179.6Q169.6 489.2 163.1 495.6Q156.6 501.9 156.6 512.1V548.4Q156.6 558.4 163.1 564.7Q169.6 571.0 179.6 571.0H223.8Q315.1 571.0 368.9 544.9Q422.7 518.8 446.3 461.3Q469.9 403.9 469.9 310.6Q469.9 241.3 450.8 190.0Q431.8 138.6 399.3 102.7Q366.9 66.8 326.0 43.2Q285.2 19.6 241.4 4.8ZM202.0 489.2 82.8 490.0Q72.6 490.0 66.2 496.0Q59.9 501.9 59.9 512.1V687.1Q59.9 697.2 66.2 703.6Q72.6 710.0 82.8 710.0H125.3Q135.5 710.0 141.9 703.6Q148.2 697.2 148.2 687.1V571.0H204.4Z"/><path transform="translate(-285.3 0.0) scale(0.0400 -0.0400)" d="M330.0 0.0Q308.0 0.0 308.0 22.0V378.6Q308.0 437.7 321.9 471.0Q335.8 504.2 356.6 504.2H455.0Q430.0 504.2 414.5 466.3Q399.0 428.4 399.0 371.9V22.0Q399.0 12.0 392.1 6.0Q385.1 0.0 375.1 0.0ZM59.8 491.1Q49.6 491.1 43.2 497.4Q36.8 503.8 36.8 514.0V548.1Q36.8 558.2 43.2 564.6Q49.6 571.0 59.8 571.0H488.7Q498.9 571.0 505.2 564.6Q511.6 558.2 511.6 548.1V514.0Q511.6 504.0 505.4 497.5Q499.2 491.1 488.7 491.1Z"/><path transform="translate(-294.7 0.0) scale(0.0400 -0.0400)" d="M93.1 231.9Q82.9 231.9 76.6 238.2Q70.2 244.6 70.2 254.8V548.1Q70.2 558.2 76.6 564.6Q82.9 571.0 93.1 571.0H140.5Q150.7 571.0 157.1 564.6Q163.4 558.2 163.4 548.1V254.8Q163.4 244.6 157.1 238.2Q150.7 231.9 140.5 231.9Z"/><path transform="translate(-316.2 0.0) scale(0.0400 -0.0400)" d="M399.8 0.0Q389.6 0.0 383.2 6.3Q376.8 12.6 376.8 22.8V321.8Q376.8 402.1 336.8 446.6Q296.8 491.1 207.8 491.1H77.3Q67.1 491.1 60.8 497.4Q54.4 503.8 54.4 514.0V548.1Q54.4 558.2 60.8 564.6Q67.1 571.0 77.3 571.0H212.9Q299.4 571.0 355.9 543.8Q412.4 516.6 440.3 462.4Q468.2 408.2 468.2 327.0V22.9Q468.2 12.8 461.8 6.4Q455.4 0.0 445.2 0.0Z"/><path transform="translate(-341.0 0.0) scale(0.0400 -0.0400)" d="M479.8 0.0Q469.6 0.0 463.2 6.3Q456.8 12.6 456.8 22.8V321.8Q456.8 402.1 416.8 446.6Q376.8 491.1 287.8 491.1H100.0Q89.8 491.1 83.4 497.4Q77.1 503.8 77.1 514.0V548.1Q77.1 558.2 83.4 564.6Q89.8 571.0 100.0 571.0H292.8Q422.8 571.0 485.5 508.1Q548.2 445.2 548.2 325.1V22.9Q548.2 12.8 541.8 6.4Q535.4 0.0 525.2 0.0ZM100.0 0.0Q89.8 0.0 83.4 6.4Q77.1 12.8 77.1 22.9V357.2Q77.1 367.4 83.4 373.8Q89.8 380.2 100.0 380.2H145.5Q155.7 380.2 162.1 373.8Q168.4 367.4 168.4 357.2V22.9Q168.4 12.8 162.1 6.4Q155.7 0.0 145.5 0.0Z"/><path transform="translate(-379.3 0.0) scale(0.0400 -0.0400)" d="M361.4 74.6Q425.8 73.8 470.5 99.1Q515.2 124.4 538.5 170.8Q561.8 217.1 561.8 276.9V548.2Q561.8 558.4 568.2 564.7Q574.6 571.0 584.8 571.0H626.5Q636.7 571.0 643.1 564.6Q649.4 558.2 649.4 548.1V270.2Q649.4 205.9 629.2 154.4Q609.0 102.9 572.1 66.6Q535.2 30.4 484.7 11.4Q434.1 -7.6 373.1 -5.9H298.1Q233.1 -5.9 181.0 23.8Q128.9 53.6 98.9 107.6Q68.9 161.6 68.9 233.2V548.1Q68.9 558.2 75.3 564.6Q81.7 571.0 91.9 571.0H133.6Q143.8 571.0 150.2 564.7Q156.6 558.4 156.6 548.2L159.8 252.9Q159.8 166.9 207.9 120.8Q255.9 74.6 329.6 74.6ZM139.3 191.6 137.1 264.8Q210.6 266.4 250.0 287.8Q289.4 309.2 304.5 345.0Q319.6 380.8 319.6 423.9V547.7Q319.6 558.2 326.0 564.6Q332.4 571.0 342.6 571.0H384.1Q394.3 571.0 400.7 564.4Q407.1 557.9 407.1 547.7V419.8Q407.1 354.7 378.0 302.8Q349.0 251.0 289.6 220.9Q230.2 190.8 139.3 191.6Z"/><path transform="translate(-400.2 0.0) scale(0.0400 -0.0400)" d="M199.8 -9.3Q190.6 -12.1 182.8 -6.7Q175.0 -1.3 175.0 8.9V55.2Q175.0 63.8 180.7 71.1Q186.3 78.3 197.1 82.3L235.5 97.4Q275.4 113.5 307.7 138.0Q339.9 162.4 358.5 204.3Q377.0 246.2 377.0 314.2Q377.0 379.0 361.4 417.2Q345.9 455.5 309.3 472.3Q272.8 489.2 210.4 489.2H179.6Q169.6 489.2 163.1 495.6Q156.6 501.9 156.6 512.1V548.4Q156.6 558.4 163.1 564.7Q169.6 571.0 179.6 571.0H223.8Q315.1 571.0 368.9 544.9Q422.7 518.8 446.3 461.3Q469.9 403.9 469.9 310.6Q469.9 241.3 450.8 190.0Q431.8 138.6 399.3 102.7Q366.9 66.8 326.0 43.2Q285.2 19.6 241.4 4.8ZM202.0 489.2 82.8 490.0Q72.6 490.0 66.2 496.0Q59.9 501.9 59.9 512.1V687.1Q59.9 697.2 66.2 703.6Q72.6 710.0 82.8 710.0H125.3Q135.5 710.0 141.9 703.6Q148.2 697.2 148.2 687.1V571.0H204.4Z"/><path transform="translate(-422.8 0.0) scale(0.0400 -0.0400)" d="M402.7 321.8Q402.7 402.1 362.2 446.6Q321.8 491.1 232.8 491.1H86.1Q75.9 491.1 69.6 497.4Q63.2 503.8 63.2 514.0V548.1Q63.2 558.2 69.6 564.6Q75.9 571.0 86.1 571.0H238.0Q324.5 571.0 381.4 544.6Q438.2 518.2 466.2 464.4Q494.1 410.6 494.1 327.0V-101.1Q494.1 -111.2 487.7 -117.6Q481.3 -124.0 471.1 -124.0H425.6Q415.4 -124.0 409.1 -117.7Q402.7 -111.4 402.7 -101.2Z"/></g><path stroke="#c2410c" stroke-width="3" d="M89.8 148h34M578.7 148h34"/></svg>